<?xml version="1.0" standalone="no"?>
<!DOCTYPE svg PUBLIC "-//W3C//DTD SVG 20010904//EN"
 "http://www.w3.org/TR/2001/REC-SVG-20010904/DTD/svg10.dtd">
<svg version="1.0" xmlns="http://www.w3.org/2000/svg"
 width="1200.000000pt" height="1200.000000pt" viewBox="0 0 1200.000000 1200.000000"
 preserveAspectRatio="xMidYMid meet">

<g transform="translate(0.000000,1200.000000) scale(0.100000,-0.100000)"
fill="#f03f52" stroke="none">
<path d="M8680 10624 c-84 -17 -101 -26 -128 -66 -26 -41 -27 -45 -26 -182 2
-161 27 -372 114 -956 33 -217 69 -469 81 -560 11 -91 47 -352 79 -580 32
-228 63 -455 69 -505 20 -171 51 -411 81 -635 50 -375 91 -703 135 -1100 9
-80 25 -217 35 -305 11 -88 24 -216 30 -285 7 -69 16 -168 21 -220 5 -52 16
-174 24 -270 20 -237 30 -269 110 -348 35 -34 77 -67 92 -73 94 -37 370 -78
531 -80 104 0 124 2 173 24 96 42 140 90 214 235 61 120 212 544 301 847 36
122 116 401 134 465 5 19 22 80 38 135 31 103 43 147 49 178 3 16 11 48 68
277 29 113 52 210 65 276 5 22 20 86 35 141 14 55 28 111 30 124 22 111 37
183 49 234 33 137 47 203 56 253 5 30 12 61 14 70 3 10 17 80 31 157 13 77 34
187 45 245 19 101 23 124 36 208 60 381 170 937 224 1132 83 305 100 487 59
625 -35 117 -79 138 -386 185 -72 11 -137 22 -145 25 -7 3 -78 16 -158 30
-175 31 -258 46 -415 79 -66 14 -163 32 -215 41 -52 9 -151 27 -220 41 -69 14
-143 27 -165 30 -22 2 -76 11 -120 19 -44 8 -107 17 -140 20 -60 6 -74 8 -190
25 -75 11 -205 28 -270 35 -72 8 -416 14 -445 9z"/>
<path d="M3435 9319 c-330 -42 -407 -51 -525 -64 -263 -29 -400 -49 -400 -60
0 -7 7 -56 15 -111 18 -118 32 -283 39 -454 15 -364 17 -440 8 -440 -5 0 -117
-15 -248 -34 -427 -62 -844 -97 -1304 -111 -222 -6 -423 -15 -426 -18 -2 -2
39 -260 75 -467 29 -175 81 -470 87 -502 5 -25 10 -28 48 -28 24 0 78 4 122 9
43 6 133 15 199 21 540 49 1212 128 1408 165 45 9 69 9 74 3 6 -11 26 -272 37
-493 8 -153 34 -515 41 -577 l6 -47 -58 -37 c-32 -21 -92 -63 -133 -93 -652
-479 -1117 -1082 -1406 -1821 -55 -142 -123 -399 -150 -565 -21 -136 -29 -441
-15 -594 37 -400 169 -712 390 -924 175 -167 333 -240 613 -281 177 -26 373
-9 645 55 80 19 247 70 288 89 11 5 58 25 105 44 174 70 378 183 579 319 70
47 75 49 88 31 7 -10 13 -22 13 -26 0 -5 23 -57 51 -116 27 -59 58 -124 67
-144 9 -21 22 -38 29 -38 6 0 62 24 125 54 62 29 147 69 188 88 41 20 114 54
163 77 206 97 266 125 337 158 131 60 140 65 137 72 -2 3 -29 58 -59 121 -83
169 -161 336 -193 410 -16 36 -32 69 -36 74 -4 4 39 63 95 130 250 299 484
644 681 1006 274 502 527 1154 666 1719 13 51 28 95 35 98 18 7 252 -75 354
-124 503 -241 770 -687 747 -1248 -4 -77 -9 -151 -12 -165 -3 -14 -10 -52 -16
-85 -37 -205 -120 -413 -235 -592 -176 -273 -416 -494 -786 -725 -103 -63
-386 -195 -534 -248 -32 -12 -68 -25 -79 -30 -23 -11 -208 -71 -275 -90 -96
-27 -116 -33 -147 -44 l-33 -12 326 -384 c179 -212 339 -398 355 -415 l29 -30
88 29 c48 15 96 32 107 37 11 4 47 17 80 28 164 54 474 185 634 269 128 67
333 189 415 247 33 24 79 57 100 72 201 143 456 394 613 603 169 226 339 582
397 835 9 39 21 88 26 110 30 125 51 341 51 540 1 242 -20 440 -68 635 -99
411 -265 710 -550 993 -271 269 -606 470 -1003 601 -92 30 -289 81 -350 91
-25 4 -50 10 -56 14 -8 4 1 67 32 219 24 118 46 222 49 232 6 19 -8 22 -160
35 -87 8 -163 14 -220 20 -27 3 -102 9 -165 15 -176 15 -324 29 -439 40 -58 5
-106 9 -107 7 -1 -1 -4 -120 -6 -265 -2 -209 -6 -264 -17 -271 -7 -5 -41 -12
-75 -15 -165 -18 -466 -75 -661 -126 -242 -64 -472 -138 -678 -219 -34 -13
-34 -12 -41 89 -10 141 -27 435 -34 577 l-7 142 65 11 c96 17 335 65 500 100
80 17 174 37 210 44 36 8 90 19 120 26 113 23 373 83 440 101 19 5 67 16 105
25 39 8 124 29 190 46 66 17 136 34 155 38 68 15 500 130 675 180 19 6 51 15
70 20 19 6 50 14 68 19 49 14 134 40 217 66 41 13 114 36 162 50 49 15 90 31
93 35 7 11 -112 830 -141 973 -6 28 -22 34 -52 18 -9 -5 -37 -17 -62 -26 -25
-10 -58 -23 -75 -30 -16 -7 -64 -25 -105 -40 -41 -14 -84 -30 -95 -35 -11 -5
-42 -16 -70 -25 -27 -10 -59 -21 -70 -26 -40 -17 -430 -143 -585 -188 -41 -12
-86 -26 -100 -31 -14 -4 -43 -13 -65 -19 -22 -6 -71 -19 -110 -30 -92 -26
-417 -109 -475 -122 -25 -6 -61 -14 -80 -19 -53 -13 -167 -39 -245 -56 -38 -8
-99 -22 -135 -30 -36 -8 -96 -21 -135 -28 -38 -8 -137 -28 -220 -45 -82 -17
-175 -33 -206 -37 l-56 -6 3 73 c2 41 5 163 8 272 4 109 10 228 16 265 5 37
12 99 15 137 3 39 10 97 16 130 14 93 14 95 -23 94 -18 -1 -96 -10 -173 -20z
m1489 -3297 c5 -9 -45 -189 -95 -342 -137 -418 -392 -926 -681 -1357 -49 -73
-93 -133 -97 -133 -16 0 -143 498 -195 760 -52 259 -117 653 -116 700 0 8 17
22 38 32 20 9 69 30 107 48 229 104 433 173 700 235 39 9 88 21 110 26 22 6
78 16 125 23 47 8 88 14 92 15 4 0 9 -3 12 -7z m-2090 -1049 c9 -49 26 -135
36 -193 11 -58 26 -134 35 -170 8 -36 22 -97 30 -136 8 -39 32 -134 51 -210
20 -77 40 -155 45 -174 4 -19 12 -52 18 -72 19 -65 31 -107 40 -140 6 -18 14
-49 20 -68 5 -19 19 -65 30 -102 12 -38 29 -96 40 -130 10 -35 33 -105 50
-156 17 -52 29 -98 25 -103 -12 -20 -205 -155 -309 -216 -181 -105 -332 -164
-509 -199 -280 -54 -449 68 -495 356 -77 475 213 1133 738 1673 68 70 127 127
131 127 4 0 15 -39 24 -87z"/>
<path d="M8957 3809 c-74 -8 -127 -43 -154 -101 -40 -86 -58 -267 -78 -798 -3
-74 -7 -169 -10 -210 -11 -179 -15 -649 -5 -705 11 -67 33 -103 76 -124 61
-30 380 -108 514 -125 90 -12 118 -15 274 -26 223 -17 330 -3 378 47 43 45
121 296 144 463 1 8 12 67 23 130 72 385 120 717 127 875 5 113 4 127 -22 204
-36 108 -57 139 -126 177 -61 35 -132 56 -278 84 -30 6 -93 20 -140 31 -234
56 -583 94 -723 78z"/>
</g>
</svg>
